<svg version="1.1" viewBox="0.0 0.0 662.3989501312336 92.0" fill="none" stroke="none" stroke-linecap="square" stroke-miterlimit="10" xmlns:xlink="http://www.w3.org/1999/xlink" xmlns="http://www.w3.org/2000/svg"><clipPath id="g2817ce5061f_0_2.0"><path d="m0 0l662.3989 0l0 92.0l-662.3989 0l0 -92.0z" clip-rule="nonzero"/></clipPath><g clip-path="url(#g2817ce5061f_0_2.0)"><path fill="#ffffff" fill-opacity="0.0" d="m0 0l662.3989 0l0 92.0l-662.3989 0z" fill-rule="evenodd"/><path fill="#000000" fill-opacity="0.0" d="m22.5804 0.0032845144l617.2284 0l0 92.0l-617.2284 0z" fill-rule="evenodd"/><path fill="#000000" fill-opacity="0.0" d="m40.83324 -5.8998375l46.679684 0l0 97.578125l-46.679684 0l0 -97.578125z" fill-rule="nonzero"/><path fill="#ffffff" d="m44.11449 9.0532875l17.65625 0q7.968746 0 12.265621 1.3125q4.3125 1.296875 7.0 5.34375q2.6875 4.03125 2.6875 12.609375q0 5.984375 -2.015625 8.515625q-2.0 2.53125 -2.4375 2.5625q1.0625 0.1875 3.34375 3.546875q2.28125 3.34375 2.28125 9.90625l0 5.859375q0 6.687504 -1.640625 10.140629q-1.625 3.4375 -5.171875 4.703125q-3.546875 1.25 -13.6875 1.25l-20.281246 0l0 -65.75zm18.953125 13.34375l-0.25 11.75q0.015625 -0.25 0.640625 -0.25q1.6874962 0 2.0937462 -0.71875q0.40625 -0.734375 0.40625 -6.03125q0 -2.703125 -0.390625 -3.53125q-0.375 -0.828125 -0.90625 -1.015625q-0.53125 -0.1875 -1.5937462 -0.203125zm0 23.921875l0 15.109375q1.6718712 -0.046875 2.2812462 -0.65625q0.609375 -0.625 0.609375 -3.9375l0 -5.90625q0 -3.546875 -0.5 -4.046875q-0.5 -0.5 -2.3906212 -0.5625z" fill-rule="nonzero"/><path fill="#ffffff" d="m90.794174 9.0532875l29.921875 0l0 15.15625l-10.96875 0l0 9.5l10.265625 0l0 14.53125l-10.265625 0l0 11.40625l12.0625 0l0 15.156254l-31.015625 0l0 -65.75zm54.695312 0l0 50.59375l10.0 0l0 15.156254l-28.953125 0l0 -65.75l18.953125 0zm52.84375 38.28125q0 9.59375 -0.46875 13.765625q-0.46875 4.171879 -3.03125 7.734379q-2.5625 3.546875 -6.859375 5.421875q-4.296875 1.875 -9.90625 1.875q-5.328125 0 -9.65625 -1.765625q-4.3125 -1.78125 -6.984375 -5.375q-2.65625 -3.59375 -3.15625 -7.703129q-0.484375 -4.109375 -0.484375 -13.953125l0 -10.8125q0 -9.609375 0.46875 -13.765625q0.484375 -4.171875 3.03125 -7.71875q2.5625 -3.5625 6.859375 -5.4375q4.296875 -1.875 9.921875 -1.875q5.328125 0 9.640625 1.78125q4.3125 1.78125 6.96875 5.375q2.671875 3.578125 3.15625 7.6875q0.5 4.109375 0.5 13.953125l0 10.8125zm-18.9375 -20.78125q0 -4.171875 -0.296875 -4.890625q-0.28125 -0.734375 -0.953125 -0.734375q-0.640625 0 -1.03125 0.578125q-0.375 0.5625 -0.375 5.046875l0 29.53125q0 5.3125 0.265625 6.078125q0.265625 0.765625 1.015625 0.765625q0.765625 0 1.0625 -0.953125q0.3125 -0.953125 0.3125 -6.359375l0 -29.0625zm89.60158 -17.5l-7.59375 65.75l-22.687515 0q-3.015625 -15.640629 -3.9375 -34.375004q0.265625 8.09375 -3.484375 34.375004l-22.625 0l-7.640625 -65.75l18.546875 0l1.765625 23.234375l0.46875 21.375q-0.34375 -16.640625 3.4375 -44.609375l19.296875 0q0.515625 3.90625 1.953125 22.015625l0.546875 24.125q0.125 -23.0625 3.5 -46.140625l18.45314 0z" fill-rule="nonzero"/><path fill="#000000" fill-opacity="0.0" d="m282.94263 -5.8998375l43.125 0l0 97.578125l-43.125 0l0 -97.578125z" fill-rule="nonzero"/><path fill="#ffffff" d="m316.95825 9.0532875l9.78125 65.75l-19.4375 0l-0.828125 -11.375004l-3.59375 0l-0.984375 11.375004l-19.59375 0l8.6875 -65.75l25.96875 0zm-11.203125 40.671875q-1.09375 -9.375 -1.09375 -25.28125q-1.25 18.25 -1.78125 25.28125l2.875 0z" fill-rule="nonzero"/><path fill="#ffffff" d="m371.08325 9.0532875l-8.6875 65.75l-27.125 0l-9.875 -65.75l19.90625 0q3.15625 27.28125 3.1875 45.4375q0.046875 -18.359375 1.453125 -32.546875l1.234375 -12.890625l19.90625 0zm2.640625 0l29.921875 0l0 15.15625l-10.96875 0l0 9.5l10.265625 0l0 14.53125l-10.265625 0l0 11.40625l12.0625 0l0 15.156254l-31.015625 0l0 -65.75zm35.742188 0l12.890625 0q11.78125 0 16.203125 0.96875q4.4375 0.953125 7.28125 5.015625q2.84375 4.0625 2.84375 12.53125q0 7.796875 -2.125 10.734375q-2.109375 2.921875 -8.1875 2.234375q5.59375 0.109375 7.484375 2.40625q1.90625 2.296875 2.359375 4.21875q0.46875 1.90625 0.46875 9.703125l0 17.937504l-17.765625 0l0 -22.265629q0 -4.703125 -0.515625 -5.46875q-0.515625 -0.78125 -1.984375 -0.78125l0 28.515629l-18.953125 0l0 -65.75zm18.953125 13.328125l0 11.5625q1.125 0 1.8125 -0.46875q0.6875 -0.46875 0.6875 -3.984375l0 -3.484375q0 -2.4375 -0.6875 -3.03125q-0.6875 -0.59375 -1.8125 -0.59375zm57.367188 -13.328125l9.78125 65.75l-19.4375 0l-0.828125 -11.375004l-3.59375 0l-0.984375 11.375004l-19.59375 0l8.6875 -65.75l25.96875 0zm-11.203125 40.671875q-1.09375 -9.375 -1.09375 -25.28125q-1.25 18.25 -1.78125 25.28125l2.875 0z" fill-rule="nonzero"/><path fill="#000000" fill-opacity="0.0" d="m494.89575 -5.8998375l46.6015 0l0 97.578125l-46.6015 0l0 -97.578125z" fill-rule="nonzero"/><path fill="#ffffff" d="m538.4113 34.834538l-18.937439 0l0 -6.984375q0 -5.234375 -0.296875 -6.078125q-0.28125 -0.84375 -1.15625 -0.84375q-0.71875 0 -1.046875 0.6875q-0.3125 0.6875 -0.3125 5.25l0 30.359375q0 4.0 0.34375 4.859375q0.34375 0.84375 1.140625 0.84375q0.96875 0 1.390625 -1.015625q0.4375 -1.03125 0.4375 -5.203125l0 -6.25l-3.3125 0l0 -12.109375l21.749939 0l0 36.45313l-12.484314 0l-0.9375 -2.75q-0.453125 0.8125 -3.3125 2.453125q-2.859375 1.625 -6.65625 1.625q-4.46875 0 -8.375 -2.171875q-3.890625 -2.171875 -5.921875 -5.390625q-2.03125 -3.21875 -2.53125 -6.640629q-0.484375 -3.4375 -0.484375 -10.0625l0 -18.78125q0 -9.203125 1.046875 -13.59375q1.046875 -4.40625 6.03125 -8.078125q4.984375 -3.6875 12.734375 -3.6875q7.578125 0 12.671875 3.1875q5.109314 3.171875 6.656189 7.5625q1.5625 4.390625 1.5625 12.375l0 3.984375z" fill-rule="nonzero"/><path fill="#ffffff" d="m544.7785 9.0532875l29.921875 0l0 15.15625l-10.96875 0l0 9.5l10.265625 0l0 14.53125l-10.265625 0l0 11.40625l12.0625 0l0 15.156254l-31.015625 0l0 -65.75z" fill-rule="nonzero"/><path fill="#ffffff" d="m592.50116 74.31892q0 0.15625 -0.078125 0.265625q-0.078125 0.09375 -0.265625 0.1875q-0.171875 0.078125 -0.484375 0.109375q-0.3125 0.046875 -0.796875 0.046875q-0.46875 0 -0.78125 -0.046875q-0.3125 -0.03125 -0.5 -0.109375q-0.1875 -0.09375 -0.265625 -0.1875q-0.0625 -0.109375 -0.0625 -0.265625l0 -26.093754q0 -0.15625 0.0625 -0.265625q0.078125 -0.125 0.265625 -0.203125q0.1875 -0.078125 0.5 -0.109375q0.3125 -0.046875 0.78125 -0.046875q0.484375 0 0.796875 0.046875q0.3125 0.03125 0.484375 0.109375q0.1875 0.078125 0.265625 0.203125q0.078125 0.109375 0.078125 0.265625l0 26.093754zm9.1796875 0q0 0.15625 -0.078125 0.265625q-0.078125 0.09375 -0.265625 0.1875q-0.171875 0.078125 -0.484375 0.109375q-0.3125 0.046875 -0.796875 0.046875q-0.46875 0 -0.78125 -0.046875q-0.3125 -0.03125 -0.5 -0.109375q-0.1875 -0.09375 -0.265625 -0.1875q-0.0625 -0.109375 -0.0625 -0.265625l0 -26.093754q0 -0.15625 0.0625 -0.265625q0.078125 -0.125 0.265625 -0.203125q0.1875 -0.078125 0.5 -0.109375q0.3125 -0.046875 0.78125 -0.046875q0.484375 0 0.796875 0.046875q0.3125 0.03125 0.484375 0.109375q0.1875 0.078125 0.265625 0.203125q0.078125 0.109375 0.078125 0.265625l0 26.093754zm18.585938 -2.6875q0 0.34375 -0.015625 0.59375q-0.015625 0.234375 -0.078125 0.40625q-0.046875 0.15625 -0.109375 0.28125q-0.0625 0.125 -0.3125 0.375q-0.25 0.25 -0.84375 0.609375q-0.578125 0.359375 -1.3125 0.640625q-0.71875 0.28125 -1.578125 0.453125q-0.859375 0.1875 -1.78125 0.1875q-1.890625 0 -3.359375 -0.625q-1.46875 -0.625 -2.453125 -1.828125q-0.984375 -1.203125 -1.5 -2.953125q-0.515625 -1.75 -0.515625 -4.03125q0 -2.5937538 0.625 -4.453129q0.640625 -1.875 1.734375 -3.0625q1.109375 -1.203125 2.59375 -1.765625q1.5 -0.578125 3.25 -0.578125q0.828125 0 1.625 0.15625q0.796875 0.15625 1.453125 0.40625q0.671875 0.25 1.1875 0.59375q0.515625 0.328125 0.75 0.5625q0.234375 0.234375 0.3125 0.375q0.09375 0.125 0.15625 0.3125q0.0625 0.1875 0.078125 0.421875q0.015625 0.234375 0.015625 0.578125q0 0.765625 -0.171875 1.078125q-0.171875 0.296875 -0.4375 0.296875q-0.28125 0 -0.671875 -0.3125q-0.375 -0.328125 -0.96875 -0.71875q-0.578125 -0.390625 -1.40625 -0.71875q-0.828125 -0.328125 -1.96875 -0.328125q-2.328125 0 -3.5625 1.796875q-1.234375 1.78125 -1.234375 5.187504q0 1.6875 0.3125 2.96875q0.328125 1.28125 0.953125 2.140625q0.625 0.859375 1.53125 1.28125q0.90625 0.421875 2.078125 0.421875q1.109375 0 1.953125 -0.34375q0.84375 -0.359375 1.453125 -0.78125q0.625 -0.421875 1.03125 -0.765625q0.421875 -0.34375 0.65625 -0.34375q0.140625 0 0.234375 0.078125q0.109375 0.078125 0.171875 0.265625q0.0625 0.1875 0.09375 0.46875q0.03125 0.28125 0.03125 0.671875z" fill-rule="nonzero"/><path fill="#ffffff" d="m40.83324 80.00329l46.679684 0l0 7.199997l-46.679684 0l0 -7.199997z" fill-rule="nonzero"/><path fill="#ffffff" d="m282.94263 80.00329l43.125 0l0 7.199997l-43.125 0l0 -7.199997z" fill-rule="nonzero"/><path fill="#ffffff" d="m494.89575 80.00329l46.601562 0l0 7.199997l-46.601562 0l0 -7.199997z" fill-rule="nonzero"/></g></svg>